HIERARCHY
ROOT hip
{
	OFFSET 0.000000 0.000000 0.000000
	CHANNELS 6 Xposition Yposition Zposition Zrotation Yrotation Xrotation 
	JOINT lhipjoint
	{
		OFFSET 0.000000 0.000000 0.000000
		CHANNELS 3 Zrotation Yrotation Xrotation
		JOINT lfemur
		{
			OFFSET 1.363060 -1.794630 0.839290
			CHANNELS 3 Zrotation Yrotation Xrotation
			JOINT ltibia
			{
				OFFSET 2.448110 -6.726130 0.000000
				CHANNELS 3 Zrotation Yrotation Xrotation
				JOINT lfoot
				{
					OFFSET 2.562200 -7.039590 0.000000
					CHANNELS 3 Zrotation Yrotation Xrotation
					JOINT ltoes
					{
						OFFSET 0.157640 -0.433110 2.322550
						CHANNELS 3 Zrotation Yrotation Xrotation
						End Site
						{
							OFFSET 0.000000 0.000000 0.000000
						}
					}
				}
			}
		}
	}
	JOINT rhipjoint
	{
		OFFSET 0.000000 0.000000 0.000000
		CHANNELS 3 Zrotation Yrotation Xrotation
		JOINT rfemur
		{
			OFFSET -1.305520 -1.794630 0.839290
			CHANNELS 3 Zrotation Yrotation Xrotation
			JOINT rtibia
			{
				OFFSET -2.542530 -6.985550 0.000000
				CHANNELS 3 Zrotation Yrotation Xrotation
				JOINT rfoot
				{
					OFFSET -2.568260 -7.056230 0.000000
					CHANNELS 3 Zrotation Yrotation Xrotation
					JOINT rtoes
					{
						OFFSET -0.164730 -0.452590 2.363150
						CHANNELS 3 Zrotation Yrotation Xrotation
						End Site
						{
							OFFSET 0.000000 0.000000 0.000000
						}
					}
				}
			}
		}
	}
	JOINT lowerback
	{
		OFFSET 0.000000 0.000000 0.000000
		CHANNELS 3 Zrotation Yrotation Xrotation
		JOINT upperback
		{
			OFFSET 0.028270 2.035590 -0.193380
			CHANNELS 3 Zrotation Yrotation Xrotation
			JOINT thorax
			{
				OFFSET 0.056720 2.048850 -0.042750
				CHANNELS 3 Zrotation Yrotation Xrotation
				JOINT lowerneck
				{
					OFFSET 0.000000 0.000000 0.000000
					CHANNELS 3 Zrotation Yrotation Xrotation
					JOINT upperneck
					{
						OFFSET -0.054170 1.746240 0.172020
						CHANNELS 3 Zrotation Yrotation Xrotation
						JOINT head
						{
							OFFSET 0.104070 1.761360 -0.123970
							CHANNELS 3 Zrotation Yrotation Xrotation
							End Site
							{
								OFFSET 0.000000 0.000000 0.000000
							}
						}
					}
				}
				JOINT lclavicle
				{
					OFFSET 0.000000 0.000000 0.000000
					CHANNELS 3 Zrotation Yrotation Xrotation
					JOINT lhumerus
					{
						OFFSET 3.362410 1.200890 -0.311210
						CHANNELS 3 Zrotation Yrotation Xrotation
						JOINT lradius
						{
							OFFSET 4.983000 -0.000000 -0.000000
							CHANNELS 3 Zrotation Yrotation Xrotation
							JOINT lwrist
							{
								OFFSET 3.483560 -0.000000 -0.000000
								CHANNELS 3 Zrotation Yrotation Xrotation
								JOINT lhand
								{
									OFFSET 0.000000 0.000000 0.000000
									CHANNELS 3 Zrotation Yrotation Xrotation
									JOINT lfingers
									{
										OFFSET 0.715260 -0.000000 -0.000000
										CHANNELS 3 Zrotation Yrotation Xrotation
										End Site
										{
											OFFSET 0.000000 0.000000 0.000000
										}
									}
								}
								JOINT lthumb
								{
									OFFSET 0.000000 0.000000 0.000000
									CHANNELS 3 Zrotation Yrotation Xrotation
									End Site
									{
										OFFSET 0.000000 0.000000 0.000000
									}
								}
							}
						}
					}
				}
				JOINT rclavicle
				{
					OFFSET 0.000000 0.000000 0.000000
					CHANNELS 3 Zrotation Yrotation Xrotation
					JOINT rhumerus
					{
						OFFSET -3.136600 1.374050 -0.404650
						CHANNELS 3 Zrotation Yrotation Xrotation
						JOINT rradius
						{
							OFFSET -5.241900 -0.000000 -0.000000
							CHANNELS 3 Zrotation Yrotation Xrotation
							JOINT rwrist
							{
								OFFSET -3.444170 -0.000000 -0.000000
								CHANNELS 3 Zrotation Yrotation Xrotation
								JOINT rhand
								{
									OFFSET 0.000000 0.000000 0.000000
									CHANNELS 3 Zrotation Yrotation Xrotation
									JOINT rfingers
									{
										OFFSET -0.622530 -0.000000 -0.000000
										CHANNELS 3 Zrotation Yrotation Xrotation
										End Site
										{
											OFFSET 0.000000 0.000000 0.000000
										}
									}
								}
								JOINT rthumb
								{
									OFFSET 0.000000 0.000000 0.000000
									CHANNELS 3 Zrotation Yrotation Xrotation
									End Site
									{
										OFFSET 0.000000 0.000000 0.000000
									}
								}
							}
						}
					}
				}
			}
		}
	}
}
MOTION
Frames: 6
Frame Time: 0.008333
-2.381649 17.781963 -5.576690 -175.500412 30.819007 174.073881 -2.812342 2.471462 1.813947 -9.908229 0.816367 -11.259328 7.971081 15.447595 52.722632 1.103696 -5.448434 2.362891 3.133500 -10.908200 -31.970800 -0.194382 -3.882052 1.395479 22.836886 2.805274 -3.057932 -3.607338 -9.483198 32.881822 1.895354 -10.586374 -10.650093 -0.017100 0.843100 -2.317300 2.464473 0.513683 10.920444 1.013069 1.463729 -2.550639 1.041736 1.896953 6.237325 1.720223 -1.422235 -10.511175 -3.601138 0.610018 -2.448939 0.842000 1.376700 -0.993400 0.604761 3.155363 1.250399 -78.557115 5.053970 42.978584 72.990560 -67.975912 -39.742825 1.468150 -1.308703 138.114915 38.753125 11.284456 6.939300 -7.125000 0.000000 0.000000 10.765100 40.802500 -1.129100 1.566271 1.319759 2.617459 77.575821 -17.271370 40.449009 -122.842463 50.380030 -81.443913 2.014416 -0.355159 -156.887522 -20.758034 4.037390 -1.555100 7.125000 0.000000 0.000000 5.920700 -25.139300 2.859200 
-2.403480 17.791188 -5.513656 -175.508844 30.816822 174.306861 -2.830276 2.496572 1.857104 -10.269913 1.015430 -10.278512 7.893215 15.365792 52.431166 1.147504 -5.792775 2.356519 3.248700 -11.087100 -32.574300 -0.190695 -3.874609 1.383557 22.991380 3.430820 -3.359780 -3.625595 -9.519928 32.975182 1.983545 -10.950536 -10.705662 -0.012300 0.717000 -1.970300 2.400229 0.473492 10.457186 1.024170 1.370716 -2.568450 1.121135 1.831699 6.327895 1.592868 -1.386497 -10.375367 -3.487563 0.661631 -2.382312 0.925300 1.404000 -1.015700 0.582516 3.161620 1.235838 -78.275362 5.012531 43.429444 72.852580 -67.958107 -39.609482 1.466927 -1.299050 138.312516 38.260043 11.358795 6.903100 -7.125000 0.000000 0.000000 10.340700 40.879600 -1.063600 1.566225 1.302011 2.614598 77.598571 -17.446663 40.379536 -123.330848 50.227172 -81.971098 1.982016 -0.383370 -157.050401 -20.511430 4.031278 -1.516200 7.125000 0.000000 0.000000 6.094600 -25.203700 2.934800 
-2.427567 17.798670 -5.451545 -175.472285 30.811526 174.563328 -2.844962 2.522394 1.902906 -10.602139 1.174337 -9.198614 7.759744 15.242480 51.929651 1.178588 -6.044651 2.302007 3.340900 -11.227400 -33.050800 -0.188297 -3.869754 1.370469 23.153253 3.999310 -3.693382 -3.646217 -9.560103 33.083763 2.052935 -11.242751 -10.775404 -0.007900 0.573100 -1.574800 2.385131 0.426908 10.007600 1.035811 1.273135 -2.586750 1.158363 1.769554 6.417185 1.554581 -1.341591 -10.270508 -3.435561 0.711321 -2.302628 0.957500 1.422300 -1.021900 0.568820 3.165556 1.223525 -78.023200 4.925670 43.825061 72.659696 -67.932747 -39.444263 1.462783 -1.286430 138.546484 37.802601 11.467752 6.903800 -7.125000 0.000000 0.000000 9.951100 41.007200 -0.990900 1.570379 1.285390 2.608491 77.662242 -17.628039 40.277658 -123.856901 50.058858 -82.540753 1.948761 -0.406953 -157.216544 -20.341385 3.995730 -1.476400 7.125000 0.000000 0.000000 6.209900 -25.291900 2.978200 
-2.451653 17.804614 -5.389228 -175.490977 30.810967 174.795971 -2.858828 2.549924 1.949962 -10.975323 1.294710 -8.034734 7.572303 15.074061 51.222955 1.208194 -6.295781 2.260257 3.354900 -11.248500 -33.122600 -0.186261 -3.863969 1.356704 23.251832 4.582469 -4.055137 -3.671789 -9.609760 33.217674 2.124855 -11.535592 -10.807984 -0.004100 0.412400 -1.133100 2.287776 0.375785 9.557247 1.048998 1.164626 -2.607939 1.242473 1.693804 6.492964 1.512609 -1.281493 -10.146131 -3.400445 0.781141 -2.232375 0.978500 1.448800 -1.036000 0.557541 3.166710 1.213529 -77.822172 4.854053 44.165010 72.446765 -67.908524 -39.267228 1.456549 -1.274535 138.754744 37.390955 11.532039 6.878600 -7.125000 0.000000 0.000000 9.595300 41.082800 -0.936700 1.578758 1.267009 2.603352 77.668722 -17.832456 40.208497 -124.383019 49.891137 -83.108877 1.911690 -0.429597 -157.377436 -20.148995 3.932825 -1.426300 7.125000 0.000000 0.000000 6.340100 -25.409800 3.023800 
-2.477071 17.809329 -5.326707 -175.458314 30.777696 175.061026 -2.867165 2.576579 1.999442 -11.295532 1.368253 -6.810136 7.334861 14.865712 50.327457 1.229597 -6.501593 2.327638 3.321900 -11.198800 -32.953200 -0.185100 -3.860034 1.342738 23.381853 5.125338 -4.456303 -3.704040 -9.666921 33.385429 2.179998 -11.775429 -10.895152 -0.002300 0.309700 -0.851000 2.248159 0.311009 9.132841 1.063316 1.041832 -2.633854 1.289906 1.615763 6.544227 1.492733 -1.215463 -10.038169 -3.383999 0.855890 -2.165319 0.987100 1.476600 -1.043700 0.547426 3.164124 1.201261 -77.605070 4.756942 44.527838 72.218201 -67.877272 -39.082256 1.446925 -1.264021 138.906440 37.010352 11.521626 6.803800 -7.125000 0.000000 0.000000 9.256600 41.069800 -0.906000 1.584659 1.253509 2.596611 77.710874 -18.021238 40.108854 -124.903746 49.719519 -83.675871 1.878751 -0.448282 -157.545831 -20.037182 3.886175 -1.390700 7.125000 0.000000 0.000000 6.410700 -25.502100 3.044000 
-2.502182 17.810252 -5.264083 -175.424414 30.736656 175.272895 -2.872462 2.605976 2.053263 -11.583801 1.459665 -5.483489 7.050006 14.615983 49.246741 1.252989 -6.739008 2.490446 3.311100 -11.182400 -32.897600 -0.188316 -3.857423 1.328320 23.513919 5.665956 -4.820827 -3.746781 -9.735920 33.603086 2.224870 -11.988967 -11.039978 -0.000300 0.118800 -0.326300 2.169386 0.239826 8.775255 1.086259 0.913545 -2.665206 1.395377 1.528832 6.536796 1.463284 -1.138651 -9.871253 -3.384621 0.932899 -2.065921 0.984400 1.497800 -1.045300 0.541921 3.147213 1.189294 -77.408096 4.705048 44.890517 71.935598 -67.844212 -38.857581 1.436669 -1.251295 139.057643 36.649366 11.532210 6.750600 -7.125000 0.000000 0.000000 8.937700 41.086600 -0.870400 1.596811 1.242540 2.589134 77.737285 -18.276506 40.003994 -125.405479 49.553213 -84.221324 1.841626 -0.463495 -157.651771 -19.937175 3.762284 -1.332700 7.125000 0.000000 0.000000 6.471200 -25.671100 3.047500 
